<?xml version="1.0" encoding="utf-8"?>
<!-- Generator: Adobe Illustrator 16.0.3, SVG Export Plug-In . SVG Version: 6.00 Build 0)  -->
<!DOCTYPE svg PUBLIC "-//W3C//DTD SVG 1.1//EN" "http://www.w3.org/Graphics/SVG/1.1/DTD/svg11.dtd">
<svg version="1.1" id="Capa_1" xmlns="http://www.w3.org/2000/svg" xmlns:xlink="http://www.w3.org/1999/xlink" x="0px" y="0px"
	 width="900px" height="437.375px" viewBox="0 0 900 437.375" enable-background="new 0 0 900 437.375" xml:space="preserve">
<path fill="#FFFFFF" stroke="#FFFFFF" stroke-width="4" stroke-miterlimit="10" d="M287.053,409.585c0,6.628-7.264,12-16.226,12
	h-68.602c-8.961,0-16.226-5.372-16.226-12v-356c0-6.627,7.264-12,16.226-12h68.602c8.961,0,16.226,5.373,16.226,12V409.585z"/>
<rect x="287.053" y="73.164" fill="none" stroke="#FFFFFF" stroke-width="6" stroke-miterlimit="10" width="450.526" height="29.474"/>
<rect x="172.316" y="413.164" fill="#FFFFFF" stroke="#FFFFFF" stroke-width="4" stroke-miterlimit="10" width="129.474" height="24.211"/>
<polygon fill="#FFFFFF" stroke="#FFFFFF" stroke-width="4" stroke-miterlimit="10" points="344,73.164 352.667,102.638 380,102.638 
	372.667,73.164 "/>
<polygon fill="#FFFFFF" stroke="#FFFFFF" stroke-width="4" stroke-miterlimit="10" points="423.667,73.164 432.333,102.638 
	459.666,102.638 452.334,73.164 "/>
<polygon fill="#FFFFFF" stroke="#FFFFFF" stroke-width="4" stroke-miterlimit="10" points="500.666,73.164 509.334,102.638 
	536.666,102.638 529.334,73.164 "/>
<polygon fill="#FFFFFF" stroke="#FFFFFF" stroke-width="4" stroke-miterlimit="10" points="576.332,73.164 585,102.638 
	612.332,102.638 605,73.164 "/>
<polygon fill="#FFFFFF" stroke="#FFFFFF" stroke-width="4" stroke-miterlimit="10" points="652.665,73.164 661.333,102.638 
	688.665,102.638 681.333,73.164 "/>
<line fill="#FFFFFF" stroke="#FFFFFF" stroke-width="4" stroke-miterlimit="10" x1="186" y1="118.638" x2="287.053" y2="118.638"/>
</svg>
